<svg id="baseline-date_range-24px" xmlns="http://www.w3.org/2000/svg" viewBox="0 0 24 24">
  <defs>
    <style>
      .cls-1 {
        fill: #454545;
      }

      .cls-2 {
        fill: none;
      }
    </style>
  </defs>
  <path id="Path_122" data-name="Path 122" class="cls-1" d="M9,11H7v2H9Zm4,0H11v2h2Zm4,0H15v2h2Zm2-7H18V2H16V4H8V2H6V4H5A1.991,1.991,0,0,0,3.01,6L3,20a2,2,0,0,0,2,2H19a2.006,2.006,0,0,0,2-2V6A2.006,2.006,0,0,0,19,4Zm0,16H5V9H19Z"/>
  <path id="Path_123" data-name="Path 123" class="cls-2" d="M0,0H24V24H0Z"/>
</svg>
