<svg id="baseline-library_add-24px" xmlns="http://www.w3.org/2000/svg" viewBox="0 0 24 24">
  <defs>
    <style>
      .cls-1 {
        fill: none;
      }

      .cls-2 {
        fill: #454545;
      }
    </style>
  </defs>
  <path id="Path_116" data-name="Path 116" class="cls-1" d="M0,0H24V24H0Z"/>
  <path id="Path_117" data-name="Path 117" class="cls-2" d="M4,6H2V20a2.006,2.006,0,0,0,2,2H18V20H4ZM20,2H8A2.006,2.006,0,0,0,6,4V16a2.006,2.006,0,0,0,2,2H20a2.006,2.006,0,0,0,2-2V4A2.006,2.006,0,0,0,20,2Zm-1,9H15v4H13V11H9V9h4V5h2V9h4Z"/>
</svg>
