<svg id="baseline-bug_report-24px" xmlns="http://www.w3.org/2000/svg" viewBox="0 0 64 64">
  <defs>
    <style>
      .cls-1 {
        fill: none;
      }

      .cls-2 {
        fill: #fff;
      }
    </style>
  </defs>
  <path id="Path_135" data-name="Path 135" class="cls-1" d="M0,0H64V64H0Z"/>
  <path id="Path_136" data-name="Path 136" class="cls-2" d="M52,17.444H43.57a17.564,17.564,0,0,0-5.46-5.662L43,7.073,38.77,3,32.26,9.269A18.862,18.862,0,0,0,28,8.778a18.4,18.4,0,0,0-4.23.491L17.23,3,13,7.073l4.86,4.709a17.786,17.786,0,0,0-5.43,5.662H4v5.778h6.27A18.485,18.485,0,0,0,10,26.111V29H4v5.778h6v2.889a18.485,18.485,0,0,0,.27,2.889H4v5.778h8.43a18.319,18.319,0,0,0,31.14,0H52V40.556H45.73A18.486,18.486,0,0,0,46,37.667V34.778h6V29H46V26.111a18.486,18.486,0,0,0-.27-2.889H52ZM34,40.556H22V34.778H34ZM34,29H22V23.222H34Z" transform="translate(4 3)"/>
</svg>
