<svg id="baseline-account_circle-24px" xmlns="http://www.w3.org/2000/svg" viewBox="0 0 24 24">
  <defs>
    <style>
      .cls-1 {
        fill: #fff;
      }

      .cls-2 {
        fill: none;
      }
    </style>
  </defs>
  <path id="Path_185" data-name="Path 185" class="cls-1" d="M12,2A10,10,0,1,0,22,12a10.188,10.188,0,0,0-1.813-5.741A9.857,9.857,0,0,0,12,2Zm0,3A3,3,0,1,1,9,8,3,3,0,0,1,12,5Zm0,14.2a7.2,7.2,0,0,1-6-3.22c.03-1.99,4-3.08,6-3.08s5.97,1.09,6,3.08A7.2,7.2,0,0,1,12,19.2Z"/>
  <path id="Path_186" data-name="Path 186" class="cls-2" d="M0,0H24V24H0Z"/>
</svg>
