<?xml version="1.0" encoding="utf-8"?>
<!-- Generator: Adobe Illustrator 22.1.0, SVG Export Plug-In . SVG Version: 6.00 Build 0)  -->
<svg version="1.1" id="Layer_1" xmlns="http://www.w3.org/2000/svg" xmlns:xlink="http://www.w3.org/1999/xlink" x="0px" y="0px"
	 viewBox="0 0 1024 1024" style="enable-background:new 0 0 1024 1024;" xml:space="preserve">
<style type="text/css">
	.st0{fill:#FFC107;}
</style>
<g>
	<path class="st0" d="M742.2,334.6c-1.4,6.3-3,12.6-4.3,18.9c-8.4,41.1-16.8,82.3-25.2,123.4c-0.7,3.3-1.6,6.6-2,10
		c-0.3,2.7-1.4,3.3-4,3.3c-37.6-0.1-75.2-0.2-112.8-0.3c-42.4-0.1-84.7-0.1-127.1-0.2c-33.4,0-66.8-0.1-100.1-0.1
		c-12.1,0-24.2-0.1-36.3-0.1c-0.8,0-1.6-0.1-3-0.1c4.2-5.1,8-9.8,11.8-14.4c59.6-72.2,119.2-144.4,178.7-216.5
		c17-20.6,33.9-41.1,50.9-61.7c0.6-0.7,1-1.5,1.5-2.3c0.4,0,0.8,0,1.2,0c0.9,0.5,1.7,1.1,2.6,1.6c45.3,24,90.6,48.1,135.9,72.1
		c0.9,0.5,1.6,1.1,2.8,1.9c-70.3,45.7-140.2,91.1-210.1,136.6c1.1,0.2,2,0.1,2.8-0.2c74-23.2,148-46.3,222-69.5
		c4.8-1.5,9.7-2.8,14.5-4.2C742.2,333.4,742.2,334,742.2,334.6z"/>
	<path class="st0" d="M451.9,829.5c-2-1.2-3.9-2.6-5.9-3.6c-43.7-23.2-87.5-46.4-131.2-69.7c-1.1-0.6-2.1-1.2-3.8-2.2
		c70.4-45.8,140.4-91.2,210.3-136.7c-0.1-0.2-0.2-0.4-0.3-0.6c-79.6,24.9-159.1,49.8-239.2,74.8c1.2-5.7,2.2-10.8,3.3-15.9
		c9.5-46.4,19-92.8,28.4-139.2c0.5-2.3,1.4-2.7,3.5-2.7c42,0.1,83.9,0.2,125.9,0.3c13.7,0,27.5,0.2,41.2,0.2
		c62.6,0.1,125.3,0.1,187.9,0.1c8,0,16,0,24.8,0c-1.5,1.9-2.5,3.3-3.6,4.6c-49.3,59.8-98.7,119.5-148,179.2
		C515,754.6,485,791,455,827.4c-0.5,0.6-0.8,1.4-1.2,2.1C453.2,829.5,452.6,829.5,451.9,829.5z"/>
</g>
</svg>
